<?xml version="1.0" standalone="no"?>
<!DOCTYPE svg PUBLIC "-//W3C//DTD SVG 20010904//EN"
 "http://www.w3.org/TR/2001/REC-SVG-20010904/DTD/svg10.dtd">
<svg version="1.0" xmlns="http://www.w3.org/2000/svg"
 width="792.000000pt" height="792.000000pt" viewBox="0 0 792.000000 792.000000"
 preserveAspectRatio="xMidYMid meet">
<metadata>
Created by potrace 1.14, written by Peter Selinger 2001-2017
</metadata>
<g transform="translate(0.000000,792.000000) scale(0.100000,-0.100000)"
fill="#000000" stroke="none">
<path d="M4855 7600 c-3 -4 -17 -5 -31 -2 -20 4 -25 2 -19 -8 5 -8 4 -11 -3
-7 -14 9 -43 -3 -36 -14 3 -5 2 -9 -3 -8 -4 1 -11 0 -15 -1 -5 -1 -14 -3 -20
-4 -7 -1 -12 -7 -11 -14 2 -6 -4 -9 -12 -6 -8 4 -15 1 -15 -5 0 -6 -9 -11 -20
-11 -11 0 -20 -4 -20 -10 0 -5 -6 -10 -14 -10 -7 0 -21 -10 -30 -22 -9 -13
-14 -17 -11 -10 3 6 1 12 -4 12 -6 0 -11 -5 -11 -10 0 -6 -8 -14 -17 -17 -10
-4 -24 -14 -31 -22 -8 -9 -11 -10 -7 -3 4 7 -27 -10 -69 -38 -42 -28 -76 -56
-76 -62 0 -6 -3 -9 -6 -5 -3 3 -17 -4 -32 -16 -79 -67 -91 -80 -85 -90 3 -6 1
-7 -5 -3 -7 4 -12 2 -12 -4 0 -6 -4 -8 -10 -5 -9 6 -14 -8 -11 -28 1 -5 -2 -6
-7 -3 -5 3 -24 -13 -43 -35 -19 -22 -40 -46 -46 -54 -7 -7 -13 -16 -13 -20 0
-3 6 -3 13 1 6 4 9 4 5 0 -3 -4 -10 -8 -15 -8 -12 0 -33 -19 -33 -30 0 -5 5
-6 10 -3 16 10 11 -1 -7 -16 -11 -10 -14 -10 -9 -1 4 7 2 12 -4 12 -8 0 -10
-9 -6 -25 4 -15 2 -25 -4 -25 -6 0 -8 5 -5 10 3 6 1 10 -6 10 -6 0 -9 -8 -6
-19 2 -10 0 -25 -5 -32 -8 -11 -9 -10 -4 4 8 26 -7 20 -20 -7 -9 -18 -9 -28 0
-36 8 -8 7 -10 -6 -5 -18 7 -40 -23 -35 -47 2 -7 2 -10 0 -5 -3 4 -9 4 -14 1
-6 -3 -5 -11 2 -20 9 -12 9 -13 -3 -9 -20 8 -41 -38 -25 -54 9 -9 8 -11 -4 -6
-10 4 -20 -3 -29 -20 -12 -23 -12 -28 0 -36 13 -8 12 -9 -2 -7 -9 2 -16 -1
-15 -7 1 -5 5 -9 9 -8 4 2 4 -5 1 -14 -4 -11 -8 -12 -11 -5 -3 9 -7 8 -18 -2
-18 -19 -18 -30 1 -22 13 4 14 2 5 -14 -6 -11 -13 -20 -16 -20 -3 0 -2 5 1 10
3 6 2 10 -3 10 -5 0 -12 -9 -15 -21 -4 -15 -2 -19 8 -15 9 3 12 0 9 -9 -3 -8
-13 -11 -21 -8 -10 4 -14 2 -10 -4 4 -6 4 -13 0 -15 -7 -2 -49 -111 -56 -142
-1 -5 -12 -29 -23 -55 -15 -31 -19 -50 -12 -58 15 -18 -50 -113 -78 -113 -16
0 -44 28 -44 43 0 6 7 2 15 -9 18 -24 18 -20 0 41 -9 28 -18 93 -21 145 -7
115 -15 134 -12 27 1 -42 -1 -80 -5 -83 -4 -4 -7 22 -7 57 0 35 -2 170 -3 299
-3 233 -3 236 -31 292 -27 57 -75 108 -101 108 -9 0 -12 7 -9 18 3 9 -2 6 -10
-8 -12 -19 -15 -21 -16 -7 0 23 -15 21 -40 -5 -29 -32 -61 -88 -50 -88 6 0 10
5 10 10 0 6 4 10 8 10 5 0 -1 -20 -12 -44 -13 -29 -23 -41 -28 -33 -6 9 -8 9
-8 0 0 -6 5 -15 10 -18 16 -10 12 -22 -12 -45 -21 -19 -21 -21 -3 -14 17 7 18
6 7 -8 -10 -13 -10 -17 3 -21 8 -4 12 -13 9 -22 -5 -13 -9 -13 -23 -3 -13 10
-14 10 -5 -1 7 -7 11 -29 9 -49 -2 -35 -2 -35 5 -7 4 17 8 23 10 15 4 -27 -2
-55 -14 -62 -7 -5 -3 -8 9 -8 17 0 17 -2 5 -10 -12 -8 -12 -10 -1 -10 8 0 12
-3 9 -6 -4 -3 -2 -19 2 -35 5 -16 5 -27 0 -24 -11 7 -7 -22 5 -32 4 -4 5 -2 0
6 -6 10 -4 12 4 7 9 -6 9 -11 0 -22 -9 -11 -8 -14 2 -14 10 0 10 -3 1 -12 -9
-9 -7 -17 11 -37 12 -13 16 -21 10 -17 -7 4 -13 2 -13 -3 0 -6 5 -11 10 -11 6
0 10 -9 10 -19 0 -11 5 -23 11 -26 6 -4 8 -13 5 -21 -3 -8 0 -13 6 -11 6 1 13
-4 16 -12 3 -9 0 -11 -9 -6 -8 5 -11 4 -6 -1 5 -5 14 -9 20 -9 7 0 11 -8 11
-17 -1 -11 4 -15 15 -11 9 4 13 3 9 -2 -4 -4 1 -20 12 -35 11 -15 17 -30 13
-34 -3 -3 -1 -6 6 -6 8 0 9 -5 1 -19 -7 -14 -7 -22 0 -26 8 -5 7 -12 -2 -23
-8 -10 -8 -13 -1 -9 13 8 12 -18 -2 -30 -4 -4 -5 -2 0 6 5 9 4 12 -3 7 -7 -4
-12 -13 -12 -21 0 -8 -12 -25 -27 -39 -22 -20 -30 -23 -42 -13 -10 8 -13 8 -8
1 4 -7 -1 -15 -10 -18 -10 -4 -20 -1 -26 9 -7 13 -12 14 -23 4 -11 -9 -14 -9
-14 1 0 8 -3 10 -6 7 -4 -4 -15 3 -25 15 -11 11 -19 18 -19 14 0 -4 -7 -1 -15
8 -18 17 -20 30 -3 20 7 -4 8 -3 4 5 -4 6 -11 9 -16 6 -4 -3 -13 2 -20 10 -7
8 -9 15 -4 15 5 0 1 5 -9 11 -9 6 -14 15 -11 21 4 7 2 8 -4 4 -7 -4 -12 -2
-12 4 0 6 -5 8 -12 4 -7 -5 -9 -2 -5 9 4 12 2 14 -10 10 -13 -5 -15 -2 -10 11
4 9 3 15 -2 11 -5 -3 -19 7 -30 21 -12 15 -21 24 -21 20 0 -3 -11 4 -25 16
-13 11 -22 26 -18 31 3 6 1 7 -5 3 -7 -4 -12 -2 -12 3 0 6 -3 10 -7 10 -20 -3
-26 2 -13 11 12 8 11 10 -7 10 -13 0 -24 8 -28 20 -4 11 -10 18 -14 16 -4 -3
-13 4 -21 14 -8 10 -17 17 -22 14 -4 -3 -8 0 -8 7 0 7 -3 10 -6 6 -3 -3 -23 1
-44 8 -21 7 -40 11 -43 9 -3 -3 -18 -6 -34 -8 -56 -4 -96 -61 -81 -116 20 -73
48 -97 348 -297 218 -146 242 -166 370 -309 187 -207 340 -495 357 -666 5 -54
18 -81 19 -40 3 103 57 291 128 442 23 47 76 141 86 150 21 19 58 79 52 85 -4
3 0 5 8 3 8 -1 14 3 12 10 -1 6 2 12 7 12 14 0 90 78 83 85 -4 4 -2 5 3 3 9
-3 83 47 96 65 3 5 9 7 12 5 6 -2 47 32 141 117 10 9 75 61 130 105 10 8 27
23 38 33 10 9 19 16 21 15 5 -4 87 55 87 64 0 5 5 6 10 3 6 -3 10 -1 10 4 0 6
4 11 9 11 5 0 38 17 72 39 35 21 75 42 89 46 14 4 31 15 38 24 8 9 11 10 7 4
-11 -22 2 -14 42 25 41 38 89 102 78 102 -4 0 1 7 9 16 9 8 14 19 11 24 -3 5
-1 11 4 14 16 10 3 68 -19 88 -11 10 -24 16 -29 13 -5 -3 -13 -1 -16 5 -8 13
-156 6 -184 -9 -10 -6 -21 -7 -25 -4 -3 3 -6 1 -6 -5 0 -7 -3 -11 -7 -11 -16
3 -73 -23 -73 -34 0 -6 -3 -8 -6 -5 -3 4 -14 -1 -23 -10 -10 -9 -30 -26 -45
-36 -15 -11 -36 -27 -46 -35 -10 -9 -42 -36 -71 -61 -30 -25 -108 -98 -174
-164 -66 -65 -129 -125 -141 -132 -56 -38 -133 -12 -160 52 -18 44 -17 165 3
244 7 30 16 66 19 79 3 13 9 32 15 43 5 10 7 18 4 18 -4 0 1 7 9 16 9 8 14 20
11 25 -4 5 -1 9 4 9 6 0 11 5 11 11 0 20 178 219 196 219 3 0 19 13 37 30 18
16 35 30 40 30 4 0 16 8 26 18 36 32 49 41 54 36 2 -2 10 2 17 11 7 8 19 15
26 15 8 0 14 5 14 11 0 5 4 8 9 4 6 -3 14 3 20 12 6 10 11 15 11 11 0 -4 29 6
64 22 35 15 67 26 70 23 3 -4 6 -2 6 4 0 5 6 10 13 11 15 1 136 32 157 39 8 4
25 8 37 10 44 7 106 34 120 51 8 9 11 11 7 2 -5 -8 11 0 34 18 23 19 40 37 37
42 -3 4 2 11 11 14 8 3 12 10 9 16 -3 5 -2 10 3 10 10 0 10 78 -1 117 -3 12
-12 30 -19 38 -33 40 -72 75 -84 75 -8 0 -14 5 -14 11 0 6 -7 9 -15 5 -8 -3
-15 -1 -15 5 0 6 -4 8 -9 4 -5 -3 -13 0 -17 6 -4 8 -9 7 -15 -2 -6 -9 -9 -10
-9 -2 0 12 -58 15 -65 3z m-445 -260 c0 -5 -5 -10 -11 -10 -5 0 -7 5 -4 10 3
6 8 10 11 10 2 0 4 -4 4 -10z m-1010 -233 c0 -2 -9 -14 -19 -26 -11 -13 -22
-28 -24 -34 -2 -7 -7 -10 -10 -7 -3 3 5 20 19 38 23 29 34 38 34 29z m770 -1
c0 -2 -7 -7 -16 -10 -8 -3 -12 -2 -9 4 6 10 25 14 25 6z m-250 -386 c0 -5 -2
-10 -4 -10 -3 0 -8 5 -11 10 -3 6 -1 10 4 10 6 0 11 -4 11 -10z m-110 -260 c0
-5 -5 -10 -11 -10 -5 0 -7 5 -4 10 3 6 8 10 11 10 2 0 4 -4 4 -10z m-19 -51
c-5 -13 -10 -19 -10 -12 -1 15 10 45 15 40 3 -2 0 -15 -5 -28z m-18 -44 c-3
-9 -8 -14 -10 -11 -3 3 -2 9 2 15 9 16 15 13 8 -4z m-22 -52 c-12 -20 -14 -14
-5 12 4 9 9 14 11 11 3 -2 0 -13 -6 -23z m-141 -57 c0 -26 -6 -18 -14 19 -5
22 -4 26 4 15 5 -8 10 -24 10 -34z"/>
<path d="M3905 7380 c-3 -5 -16 -10 -29 -10 -35 0 -68 -42 -73 -94 -4 -32 -2
-46 6 -46 7 0 10 -4 6 -10 -3 -5 6 -17 20 -26 28 -18 98 -21 103 -4 2 6 8 8
13 4 5 -3 20 7 34 22 27 29 33 49 13 39 -7 -4 -5 0 4 8 14 11 15 16 5 26 -7 7
-12 16 -12 20 0 12 -61 61 -76 62 -8 0 -5 4 6 9 16 7 17 9 3 9 -9 1 -20 -3
-23 -9z"/>
<path d="M3961 7363 c17 -22 43 -43 47 -38 2 2 -7 15 -19 29 -25 29 -49 36
-28 9z"/>
<path d="M4005 7300 c3 -5 8 -10 11 -10 2 0 4 5 4 10 0 6 -5 10 -11 10 -5 0
-7 -4 -4 -10z"/>
<path d="M3484 7089 c42 -37 74 -86 92 -142 7 -23 13 -35 13 -26 1 25 -20 81
-43 114 -26 37 -75 85 -87 85 -6 0 6 -14 25 -31z"/>
<path d="M2870 7012 c0 -4 -16 -7 -35 -6 -19 1 -38 -2 -41 -7 -3 -5 -11 -6
-17 -3 -7 4 -9 4 -5 -1 5 -5 -1 -15 -12 -22 -48 -34 -67 -131 -36 -188 9 -16
16 -26 16 -21 0 5 9 -1 19 -13 11 -13 24 -20 30 -17 5 4 12 2 15 -3 9 -14 104
-3 134 16 38 24 52 40 45 47 -4 3 -1 6 6 6 7 0 9 5 6 10 -3 6 -1 10 5 10 6 0
9 4 5 9 -3 5 -1 12 5 16 5 3 10 11 10 16 0 6 -6 7 -12 3 -10 -6 -10 -4 -3 7 6
8 10 21 9 29 -1 8 -2 21 -3 29 -1 8 -7 11 -16 7 -9 -3 -18 1 -21 9 -7 16 -104
79 -104 67z"/>
<path d="M2922 6999 c20 -10 44 -29 52 -41 9 -12 16 -17 16 -10 0 17 -32 52
-47 52 -7 0 -13 4 -13 8 0 4 -10 8 -22 9 -18 1 -14 -3 14 -18z"/>
<path d="M3300 6985 c-7 -9 -8 -15 -2 -15 5 0 12 7 16 15 3 8 4 15 2 15 -2 0
-9 -7 -16 -15z"/>
<path d="M3286 6913 c-6 -14 -5 -15 5 -6 7 7 10 15 7 18 -3 3 -9 -2 -12 -12z"/>
<path d="M3588 6870 c2 -16 6 -30 8 -30 2 0 4 14 4 30 0 17 -4 30 -8 30 -5 0
-7 -13 -4 -30z"/>
<path d="M3590 6810 c0 -11 4 -20 8 -20 4 0 8 9 8 20 0 11 -4 20 -8 20 -4 0
-8 -9 -8 -20z"/>
<path d="M5416 6819 c5 -9 -9 -13 -33 -10 -7 1 -13 -3 -13 -8 0 -5 -8 -12 -17
-15 -35 -12 -66 -73 -66 -131 -1 -109 80 -168 198 -143 39 8 136 78 109 78 -5
0 -3 4 3 8 14 9 23 77 16 117 -4 18 -10 24 -21 20 -11 -4 -12 -2 -4 7 12 15
-7 48 -27 48 -6 0 -11 4 -11 8 0 5 -12 14 -26 20 -14 7 -23 8 -19 2 3 -5 -1
-10 -10 -10 -9 0 -14 4 -11 8 3 5 -1 9 -9 9 -8 0 -12 -4 -9 -9 6 -10 -10 -11
-20 -1 -10 11 -37 12 -30 2z m137 -34 c35 -34 35 -46 0 -14 -16 13 -32 27 -37
31 -6 5 -6 8 0 8 5 0 22 -11 37 -25z"/>
<path d="M3590 6748 c0 -23 3 -29 9 -19 8 12 4 51 -5 51 -2 0 -4 -15 -4 -32z"/>
<path d="M3591 6619 c1 -39 3 -69 5 -66 8 7 9 137 2 137 -4 0 -7 -32 -7 -71z"/>
<path d="M3590 6524 c0 -8 5 -12 10 -9 6 4 8 11 5 16 -9 14 -15 11 -15 -7z"/>
<path d="M3710 6275 c0 -8 -4 -15 -10 -15 -5 0 -10 -7 -10 -15 0 -8 -11 -22
-25 -31 -29 -19 -27 -31 3 -15 11 6 29 27 41 46 24 41 25 45 11 45 -5 0 -10
-7 -10 -15z"/>
<path d="M1884 6077 c-3 -8 -16 -13 -30 -11 -13 1 -22 -2 -19 -6 3 -5 -3 -14
-14 -19 -22 -12 -41 -61 -41 -107 0 -33 37 -89 62 -92 60 -8 86 -7 108 1 34
14 71 48 64 58 -3 5 0 9 6 9 6 0 8 5 5 10 -3 6 -2 10 3 10 13 0 7 72 -7 99 -7
12 -17 21 -23 21 -7 0 -6 -5 2 -15 24 -29 5 -23 -25 8 -23 24 -25 27 -7 18 12
-6 22 -8 22 -4 0 14 -49 32 -57 21 -4 -7 -1 -8 7 -3 9 5 11 4 6 -4 -6 -9 -14
-8 -32 4 -20 13 -25 13 -30 2z"/>
<path d="M4610 5708 c0 -5 12 -9 28 -9 17 -1 21 -3 9 -6 -10 -3 -26 -1 -35 3
-9 4 -24 7 -32 7 -27 0 -110 -25 -110 -34 0 -4 18 -2 40 6 22 8 40 11 40 7 0
-13 -100 -40 -107 -29 -4 6 -1 7 7 2 9 -5 11 -4 6 4 -10 15 -29 3 -22 -15 3
-8 -1 -14 -10 -14 -8 0 -12 5 -8 11 3 6 -5 3 -20 -6 -14 -9 -24 -21 -21 -25 8
-12 -23 -33 -36 -24 -7 4 -10 3 -7 -2 3 -5 0 -15 -8 -22 -8 -7 -14 -9 -14 -5
0 4 -5 0 -11 -10 -6 -9 -15 -15 -20 -11 -5 3 -9 2 -8 -3 3 -19 -2 -33 -12 -33
-5 0 -7 6 -3 13 4 7 3 9 -2 4 -5 -5 -9 -14 -9 -20 -1 -7 -7 -11 -14 -9 -7 1
-10 -2 -6 -8 3 -5 -1 -13 -9 -16 -9 -3 -13 -10 -10 -15 3 -5 -2 -9 -11 -9 -9
0 -14 -4 -11 -8 3 -5 -7 -24 -22 -42 -33 -39 -142 -226 -142 -243 0 -7 17 6
38 28 20 22 42 42 47 43 6 2 26 19 46 37 20 19 40 31 43 28 3 -4 6 1 6 11 0 9
4 15 8 12 5 -3 22 7 38 22 16 15 34 28 39 29 6 2 18 10 28 18 9 8 17 12 17 8
0 -3 8 1 18 10 19 17 109 60 115 55 2 -2 10 2 18 8 28 22 112 36 222 36 42 0
77 4 77 10 0 5 4 7 8 4 14 -8 54 25 48 40 -3 8 -2 13 2 11 4 -1 7 0 8 3 0 3 6
14 12 26 8 16 8 24 -1 34 -9 10 -9 11 1 6 15 -9 16 8 1 35 -5 11 -15 16 -21
13 -7 -4 -8 -3 -4 4 10 17 -27 32 -95 39 -45 4 -60 3 -55 -6 4 -6 2 -11 -3
-11 -6 0 -11 4 -11 8 0 4 -13 8 -30 7 -16 0 -30 -3 -30 -7z m-17 -25 c-7 -2
-19 -2 -25 0 -7 3 -2 5 12 5 14 0 19 -2 13 -5z m-183 -63 c0 -5 -8 -10 -17
-10 -15 0 -16 2 -3 10 19 12 20 12 20 0z"/>
<path d="M2550 5683 c-61 -19 -90 -62 -92 -136 -1 -64 11 -104 35 -120 19 -12
102 -25 200 -30 15 -1 27 -6 27 -11 0 -5 6 -3 13 3 8 6 17 7 21 3 4 -4 12 -8
17 -8 5 -1 10 -2 12 -4 4 -3 41 -11 64 -13 13 -1 23 -6 23 -10 0 -5 4 -6 9 -2
5 3 12 1 16 -5 4 -6 10 -8 15 -5 5 3 38 -8 75 -25 36 -16 68 -30 71 -30 22 0
139 -84 189 -136 55 -56 118 -144 120 -169 0 -5 6 -9 12 -8 6 1 9 -6 6 -16 -3
-10 0 -22 5 -25 7 -4 9 17 6 61 -2 37 -8 70 -14 73 -6 4 -8 14 -4 23 3 10 1
17 -5 17 -6 0 -8 7 -5 15 4 8 2 15 -3 15 -5 0 -9 9 -10 21 -1 12 -10 28 -20
36 -10 8 -12 12 -5 8 20 -10 14 2 -15 31 -16 15 -20 22 -10 15 9 -8 17 -11 17
-8 0 3 -8 13 -17 23 -10 10 -19 21 -19 26 -1 4 -2 11 -3 16 -1 4 -6 0 -12 -8
-8 -12 -9 -10 -4 8 7 23 -9 31 -19 10 -3 -7 -3 -3 0 9 4 17 -7 34 -46 73 -27
27 -56 50 -62 50 -7 0 3 -15 21 -32 19 -18 38 -33 44 -33 5 0 14 -10 18 -23 6
-15 5 -21 -1 -17 -6 3 -10 13 -10 21 0 8 -4 13 -8 10 -5 -3 -24 11 -43 30 -38
40 -143 124 -156 124 -4 1 -21 12 -38 27 -29 25 -29 25 -2 9 15 -9 27 -13 27
-8 0 8 -46 33 -60 34 -3 0 -14 7 -25 14 -11 8 -24 14 -30 14 -5 -1 4 -8 20
-17 17 -10 34 -16 38 -15 5 1 6 -2 2 -7 -6 -11 -71 23 -93 49 -8 8 -11 9 -7 3
4 -9 1 -11 -9 -7 -9 3 -14 9 -12 13 3 4 -4 8 -15 9 -43 4 -49 6 -49 14 0 5 -4
6 -10 3 -5 -3 -10 -1 -10 5 0 6 -5 8 -10 5 -6 -4 -18 -1 -27 7 -14 11 -16 11
-8 -2 7 -12 6 -13 -6 -4 -14 11 -101 16 -129 7z"/>
<path d="M2994 5548 c-4 -6 -3 -8 3 -5 6 4 18 -2 28 -13 10 -11 22 -20 27 -20
5 0 23 -13 41 -29 17 -17 35 -27 41 -24 6 4 4 9 -4 11 -8 3 -26 16 -40 29 -14
13 -33 26 -42 29 -10 3 -18 9 -18 14 0 13 -29 20 -36 8z"/>
<path d="M4895 5327 c-30 -26 -39 -44 -45 -80 -4 -27 -3 -47 2 -47 5 0 7 -4 4
-9 -8 -13 41 -54 55 -46 8 6 10 4 4 -5 -11 -18 71 -8 110 13 17 9 27 16 23 17
-5 0 1 9 12 20 12 12 18 25 15 30 -3 5 -1 11 4 14 10 7 5 39 -11 73 -12 24
-73 61 -84 50 -4 -4 0 -7 8 -7 9 0 30 -13 48 -30 18 -16 28 -30 23 -30 -5 0
-20 11 -33 25 -13 14 -31 25 -40 25 -9 0 -22 6 -29 13 -11 10 -13 10 -7 0 5
-8 1 -13 -9 -13 -9 0 -13 5 -10 10 11 18 -2 10 -40 -23z"/>
<path d="M3679 4826 c-3 -3 -19 -6 -37 -8 -18 -1 -32 -6 -32 -10 0 -4 -7 -5
-15 -2 -9 4 -15 0 -15 -7 0 -10 -2 -11 -8 -2 -4 6 -19 9 -34 6 -16 -3 -25 -10
-21 -16 4 -6 1 -7 -7 -2 -14 9 -90 -14 -90 -27 0 -4 -3 -7 -7 -7 -24 4 -45 -3
-63 -21 -11 -11 -22 -20 -25 -20 -3 0 -10 0 -16 0 -5 0 -7 -5 -3 -12 4 -7 3
-8 -5 -4 -7 4 -26 -8 -47 -29 -29 -30 -34 -42 -29 -63 17 -69 103 -128 213
-148 12 -2 34 -7 50 -10 15 -4 104 -8 197 -10 136 -2 192 1 280 17 180 32 328
83 377 129 31 29 32 73 2 104 -14 14 -39 31 -55 38 -16 7 -29 16 -29 20 0 4
-9 5 -20 3 -11 -2 -20 0 -20 6 0 5 -5 9 -11 9 -5 0 -7 -6 -4 -12 4 -7 0 -5 -8
5 -8 10 -28 19 -45 20 -16 1 -28 6 -25 11 3 5 -8 7 -25 4 -17 -2 -29 -1 -26 4
3 5 -6 7 -20 4 -15 -3 -24 -1 -21 5 4 5 -3 9 -15 9 -13 0 -19 -4 -14 -11 3 -6
-5 -4 -19 6 -18 11 -27 13 -32 5 -5 -8 -12 -7 -24 4 -10 9 -20 14 -23 11 -10
-11 -48 -14 -48 -4 0 6 -8 5 -21 -2 -17 -8 -20 -8 -14 1 5 9 1 10 -15 5 -35
-11 -54 -13 -65 -6 -20 11 -36 9 -42 -7 -6 -14 -7 -14 -13 2 -3 9 -8 15 -11
12z m-194 -56 c-3 -5 -12 -10 -18 -10 -7 0 -6 4 3 10 19 12 23 12 15 0z"/>
<path d="M2889 4547 c-39 -34 -118 -148 -165 -237 -16 -30 -33 -58 -37 -61 -5
-3 -9 -12 -11 -20 -1 -8 -10 -29 -19 -46 -10 -18 -17 -34 -15 -35 1 -2 -10
-24 -25 -50 -15 -27 -24 -48 -22 -48 3 0 -6 -22 -20 -50 -14 -27 -23 -50 -20
-50 3 0 -2 -16 -10 -37 -8 -20 -18 -50 -21 -67 -3 -17 -9 -32 -15 -34 -5 -2
-9 -9 -9 -15 -1 -19 -56 -87 -65 -79 -5 4 -5 2 -2 -4 8 -13 -141 -200 -155
-196 -5 1 -7 -1 -5 -5 3 -5 -15 -31 -39 -58 -24 -28 -44 -53 -44 -57 0 -5 -7
-8 -16 -8 -8 0 -13 -3 -11 -7 6 -11 -30 -43 -39 -35 -4 4 -4 2 0 -5 3 -7 -13
-31 -39 -57 -25 -26 -45 -51 -45 -57 0 -5 -4 -7 -10 -4 -5 3 -10 2 -10 -3 0
-4 -22 -32 -49 -60 -27 -29 -48 -52 -46 -52 3 0 -12 -16 -31 -35 -19 -20 -40
-32 -46 -29 -7 4 -8 2 -4 -5 5 -7 -1 -20 -13 -30 -12 -10 -21 -21 -21 -23 0
-3 -36 -42 -80 -87 -44 -45 -80 -85 -80 -87 0 -3 -13 -18 -28 -34 -21 -21 -29
-39 -31 -72 -2 -23 -3 -49 -4 -56 0 -7 -7 -10 -16 -7 -14 4 -14 4 -1 -7 16
-14 16 -83 -1 -73 -5 4 -9 1 -9 -4 0 -6 4 -11 9 -11 5 0 7 -21 5 -47 -3 -27
-6 -84 -8 -128 -2 -78 -24 -145 -46 -145 -6 0 -10 -4 -10 -10 0 -10 -20 -37
-52 -72 -10 -10 -15 -18 -11 -18 4 0 -2 -7 -13 -16 -10 -8 -12 -12 -4 -8 8 5
0 -11 -18 -34 -19 -23 -31 -42 -28 -42 3 0 -2 -9 -12 -20 -9 -12 -17 -24 -18
-28 -2 -15 -18 -48 -31 -60 -6 -7 -9 -20 -6 -29 5 -13 2 -15 -11 -10 -12 5
-15 3 -9 -6 12 -19 14 -49 3 -42 -7 4 -7 -3 0 -20 6 -15 8 -31 4 -36 -3 -5 -1
-9 4 -9 5 0 15 -14 22 -30 7 -17 17 -30 22 -30 5 0 7 -3 5 -7 -3 -5 1 -14 9
-21 8 -7 14 -10 14 -7 0 2 9 -3 19 -12 11 -9 18 -20 15 -25 -3 -4 2 -5 11 -2
8 4 21 2 28 -3 6 -5 30 -9 52 -9 24 1 45 -5 52 -14 10 -12 14 -13 25 -2 11 11
10 12 -6 6 -13 -5 -17 -4 -12 4 4 7 17 12 29 12 12 0 41 9 64 19 23 11 44 17
47 13 3 -3 6 0 6 7 0 8 8 11 19 8 15 -4 18 -1 13 12 -5 14 -4 14 11 2 15 -12
17 -12 11 3 -4 11 -1 16 10 16 9 0 16 5 16 12 0 6 3 9 6 5 3 -3 14 3 25 14 11
11 25 17 31 13 7 -5 8 -3 3 6 -6 10 -4 12 8 7 12 -4 14 -2 10 10 -5 13 -2 15
11 10 9 -4 15 -3 12 2 -6 10 50 62 70 65 7 1 17 6 21 11 4 4 2 5 -4 1 -23 -13
-14 8 13 31 14 12 32 19 40 16 8 -3 14 0 14 7 0 6 -4 8 -10 5 -5 -3 -10 -1
-10 5 0 6 9 14 21 18 11 5 21 12 22 17 1 6 5 9 10 7 4 -1 6 3 5 10 -2 7 2 12
9 13 6 0 15 4 20 9 5 5 3 6 -4 2 -19 -11 -16 9 4 25 15 12 16 12 8 -1 -8 -13
-7 -13 8 -1 18 15 23 26 7 16 -17 -10 -11 12 7 26 15 12 16 12 8 -1 -4 -8 -4
-12 0 -7 5 4 10 14 11 22 3 22 45 76 54 70 4 -3 6 4 3 15 -3 12 0 20 6 20 7 0
9 -5 5 -12 -5 -9 -2 -9 9 1 18 15 23 26 7 16 -17 -10 -11 5 21 61 17 30 35 52
40 49 5 -4 6 2 2 11 -4 11 -3 15 5 10 6 -3 14 -1 18 5 4 8 3 9 -4 5 -18 -11
-15 -1 15 54 14 27 30 47 35 44 4 -3 5 3 1 12 -5 13 -3 15 7 9 8 -5 11 -4 7 3
-9 13 2 44 13 37 5 -3 12 0 16 6 4 8 3 9 -4 5 -17 -10 -15 9 3 45 9 16 20 27
25 24 6 -4 7 1 3 11 -4 12 -3 15 5 10 7 -4 10 -2 6 7 -2 7 25 78 62 156 50
104 72 140 82 136 11 -4 12 -2 4 8 -9 10 -2 32 25 90 21 44 42 76 48 73 6 -2
12 2 12 10 0 7 -5 10 -10 7 -5 -3 -7 0 -5 8 3 8 14 13 24 11 16 -2 16 -1 4 7
-13 9 -12 12 5 26 11 9 14 13 6 9 -9 -4 -12 -2 -9 7 3 8 10 13 16 12 5 -1 8 6
5 16 -3 10 0 22 6 25 7 5 9 0 5 -11 -5 -14 -4 -15 4 -4 6 8 8 21 4 29 -3 10
-1 13 6 8 8 -5 10 -1 5 10 -4 12 -3 15 5 10 8 -5 10 -1 5 10 -4 12 -3 15 5 10
8 -5 10 -1 5 10 -5 13 -3 15 7 9 8 -5 11 -4 6 3 -8 14 41 115 53 108 5 -3 16
3 26 14 10 11 13 20 8 20 -6 0 -14 -7 -17 -16 -4 -9 -9 -14 -12 -11 -9 8 16
48 26 42 5 -3 12 0 16 6 4 8 3 9 -4 5 -18 -11 -14 10 5 25 15 12 16 12 8 -1
-8 -13 -7 -13 8 -1 19 15 23 26 6 15 -7 -4 -10 -1 -7 7 3 8 11 13 17 11 7 -1
10 2 7 6 -6 10 20 36 46 45 21 7 40 -15 32 -37 -3 -9 -1 -16 5 -16 7 0 11 -20
11 -50 0 -27 -4 -50 -10 -50 -5 0 -10 -10 -9 -22 0 -22 1 -22 10 -3 7 16 8 12
4 -14 -3 -18 -5 -39 -6 -45 0 -6 -5 -2 -10 9 -7 15 -8 9 -4 -20 4 -24 2 -35
-3 -27 -6 9 -12 0 -21 -29 -7 -22 -15 -48 -18 -58 -4 -14 -3 -14 7 -1 10 13
11 12 6 -3 -3 -10 -6 -24 -6 -30 0 -7 -4 -6 -10 3 -6 9 -10 10 -10 3 0 -6 -3
-20 -6 -30 -5 -15 -4 -16 6 -3 10 13 11 12 6 -3 -3 -10 -6 -21 -6 -23 0 -2 -7
-4 -15 -4 -8 0 -15 -5 -15 -11 0 -5 5 -7 10 -4 6 3 10 1 10 -4 0 -6 -8 -11
-17 -11 -14 0 -15 -2 -4 -9 10 -7 11 -12 1 -27 -10 -17 -11 -17 -6 -1 3 10 2
16 -3 13 -5 -3 -11 -15 -14 -26 -3 -12 -1 -18 5 -14 6 4 5 -3 -1 -15 -7 -11
-17 -21 -24 -21 -7 0 -6 -4 3 -10 13 -8 12 -10 -2 -10 -10 0 -18 -5 -18 -11 0
-5 4 -7 10 -4 6 3 7 -1 4 -9 -3 -9 -9 -14 -13 -11 -11 6 -74 -129 -76 -159 0
-14 -9 -33 -20 -42 -11 -8 -14 -13 -8 -9 9 4 11 1 7 -9 -3 -9 -11 -13 -17 -9
-6 4 -8 -2 -4 -16 3 -14 0 -24 -9 -28 -8 -3 -11 -9 -8 -14 3 -5 0 -9 -6 -9 -7
0 -10 -6 -7 -14 3 -8 -1 -17 -9 -20 -8 -3 -14 -14 -14 -24 0 -11 -6 -25 -14
-31 -18 -15 -29 -53 -13 -45 7 3 5 0 -4 -8 -9 -7 -14 -19 -12 -25 3 -7 0 -13
-7 -13 -6 0 -8 -4 -5 -10 3 -5 1 -10 -5 -10 -6 0 -9 -4 -6 -9 3 -5 -1 -12 -10
-15 -10 -4 -14 -12 -10 -22 4 -10 -1 -23 -11 -31 -10 -8 -12 -12 -6 -8 9 4 11
1 7 -9 -3 -9 -11 -13 -17 -9 -6 4 -8 -2 -4 -16 3 -15 -1 -24 -14 -31 -10 -6
-16 -17 -13 -25 4 -8 -2 -27 -12 -43 -10 -15 -19 -31 -19 -37 -2 -23 -18 -44
-28 -38 -6 4 -7 1 -3 -6 5 -7 0 -21 -11 -33 -10 -12 -12 -18 -6 -14 9 5 11 2
7 -8 -3 -9 -11 -13 -16 -10 -6 4 -9 1 -6 -7 3 -8 -2 -20 -11 -27 -9 -8 -10
-11 -3 -7 6 3 12 1 12 -4 0 -6 -5 -11 -11 -11 -6 0 -9 -7 -5 -15 3 -8 1 -15
-4 -15 -5 0 -7 -6 -4 -13 3 -8 -2 -20 -11 -27 -8 -7 -15 -18 -15 -24 0 -6 5
-4 10 4 6 9 10 10 10 3 0 -6 -5 -15 -10 -18 -6 -4 -8 -11 -5 -16 4 -5 2 -9 -3
-9 -5 0 -9 -6 -10 -12 -1 -15 -10 -53 -12 -53 -1 0 -3 -11 -6 -25 -3 -19 -2
-21 6 -10 6 9 10 10 10 3 0 -6 -4 -14 -9 -17 -4 -3 -8 -26 -8 -50 0 -25 4 -43
8 -40 5 3 6 -1 3 -9 -3 -8 1 -19 9 -25 17 -15 77 -23 77 -11 0 5 3 8 8 8 14
-3 72 23 72 32 0 5 6 9 13 9 7 0 30 16 50 35 20 19 37 33 37 30 0 -3 38 32 84
77 46 46 82 86 80 89 -2 3 6 12 17 19 10 8 19 20 19 26 0 7 4 14 9 16 11 4
102 154 105 172 1 8 7 20 12 27 11 15 94 228 94 243 0 4 6 22 14 39 15 32 65
179 71 207 2 8 4 16 5 18 2 1 3 5 5 10 3 11 24 63 42 105 18 42 38 48 46 15 7
-24 1 -293 -7 -343 -2 -16 -7 -61 -10 -100 -6 -68 -10 -101 -21 -202 -3 -27
-15 -93 -25 -148 -11 -55 -22 -118 -25 -140 -6 -43 -32 -231 -41 -305 -3 -25
-7 -56 -9 -70 -27 -183 -26 -281 4 -339 46 -88 117 -131 221 -131 169 1 302
72 434 234 47 58 153 133 269 192 135 67 187 77 347 70 232 -10 275 -22 451
-120 113 -62 225 -98 291 -94 68 5 99 28 124 95 47 123 -24 427 -136 582 -84
115 -93 206 -27 279 36 39 106 24 156 -34 14 -16 45 -67 69 -114 66 -126 116
-194 207 -284 92 -91 203 -172 299 -217 51 -24 79 -31 126 -30 93 0 134 26
147 91 4 22 -43 113 -68 130 -266 186 -411 351 -418 476 -2 35 2 45 29 68 22
18 43 26 69 26 37 0 42 -3 161 -93 108 -82 205 -119 310 -119 71 0 142 23 169
56 23 28 12 116 -19 146 -3 3 -17 23 -31 45 -39 60 -230 248 -330 325 -11 8
-37 30 -57 47 -20 18 -42 33 -47 33 -6 0 -16 9 -23 21 -7 12 -15 19 -18 16
-13 -13 -254 226 -254 253 0 6 -3 10 -8 10 -4 0 -18 18 -32 39 -13 22 -28 37
-34 34 -5 -3 -6 -1 -2 5 3 6 -6 23 -21 38 -16 16 -26 29 -23 30 3 1 -5 14 -17
28 -13 15 -23 29 -23 34 0 4 -11 20 -25 36 -14 16 -25 33 -25 38 0 5 -4 6 -10
3 -6 -3 -7 1 -4 9 3 9 1 16 -5 16 -6 0 -11 5 -11 11 0 7 -8 19 -17 28 -10 9
-19 23 -21 31 -2 8 -8 17 -13 18 -5 2 -9 10 -9 18 0 8 -4 14 -10 14 -5 0 -10
6 -10 13 0 7 -9 23 -20 35 -11 12 -20 26 -20 32 0 5 -5 10 -11 10 -5 0 -8 4
-5 8 3 5 -3 18 -14 29 -10 12 -16 24 -13 27 4 3 1 6 -5 6 -7 0 -12 7 -12 15 0
8 -4 15 -10 15 -5 0 -10 7 -10 15 0 8 -5 15 -11 15 -5 0 -8 4 -4 9 3 5 -1 16
-9 23 -7 8 -17 24 -20 36 -4 12 -12 22 -17 22 -5 0 -8 3 -7 8 1 4 -11 32 -27
62 -16 30 -28 59 -27 63 1 4 -4 10 -12 13 -8 3 -13 11 -10 19 3 7 -2 20 -11
28 -9 9 -15 18 -15 19 4 8 -13 58 -19 58 -4 0 -8 6 -8 13 0 6 -11 35 -23 62
-29 63 -26 56 -35 83 -4 12 -12 22 -18 22 -6 0 -7 3 -4 6 3 4 -2 18 -13 32
-11 13 -17 28 -14 33 3 5 0 9 -5 9 -6 0 -11 7 -11 15 0 8 -4 15 -9 15 -5 0
-11 9 -14 21 -4 13 -10 18 -18 13 -8 -4 -10 -3 -5 4 9 15 -87 108 -120 116
-28 7 -74 -15 -74 -36 0 -6 -16 -26 -35 -45 -19 -19 -35 -38 -35 -43 0 -6 -4
-9 -9 -7 -5 1 -23 -10 -40 -26 -17 -15 -34 -27 -38 -27 -21 0 -43 -12 -38 -21
3 -5 -1 -6 -9 -3 -10 4 -16 1 -16 -7 0 -7 -3 -9 -7 -6 -3 4 -17 0 -30 -8 -13
-9 -23 -13 -23 -10 0 3 -16 -1 -35 -9 -20 -9 -38 -15 -40 -16 -3 0 -6 0 -7 -1
-10 -3 -38 -9 -63 -14 -16 -3 -41 -8 -55 -11 -36 -8 -91 -15 -117 -15 -13 1
-23 -5 -23 -12 0 -8 -3 -7 -9 2 -8 12 -12 12 -24 2 -10 -8 -17 -8 -21 -2 -4 6
-13 8 -20 5 -7 -3 -62 -6 -122 -7 -60 -2 -114 -6 -120 -10 -6 -3 -14 -3 -18 0
-4 4 -17 8 -29 9 -37 2 -131 14 -156 19 -71 14 -229 78 -243 99 -5 7 -8 7 -8
1 0 -6 -3 -6 -8 0 -4 6 -23 22 -42 35 -19 14 -45 35 -56 47 -12 13 -27 23 -33
23 -7 0 -10 4 -7 9 4 5 3 11 -2 13 -4 1 -21 20 -36 41 -35 46 -60 47 -107 4z
m101 -1314 c-11 -17 -11 -17 -6 0 3 10 6 24 7 30 0 9 2 9 5 0 3 -7 0 -20 -6
-30z m-170 -412 c-28 -56 -35 -52 -8 4 12 24 23 43 26 41 2 -2 -6 -22 -18 -45z
m-137 -296 c-3 -9 -8 -14 -10 -11 -3 3 -2 9 2 15 9 16 15 13 8 -4z"/>
<path d="M2986 3552 c-3 -5 1 -9 9 -9 8 0 12 4 9 9 -3 4 -7 8 -9 8 -2 0 -6 -4
-9 -8z"/>
<path d="M2955 3539 c-4 -6 -5 -12 -2 -15 2 -3 7 2 10 11 7 17 1 20 -8 4z"/>
<path d="M2835 3369 c-4 -6 -5 -12 -2 -15 2 -3 7 2 10 11 7 17 1 20 -8 4z"/>
<path d="M2561 2807 c-13 -21 -12 -21 5 -5 10 10 16 20 13 22 -3 3 -11 -5 -18
-17z"/>
<path d="M2526 2735 c-9 -26 -7 -32 5 -12 6 10 9 21 6 23 -2 3 -7 -2 -11 -11z"/>
<path d="M2489 2653 c-13 -16 -12 -17 4 -4 16 13 21 21 13 21 -2 0 -10 -8 -17
-17z"/>
<path d="M2295 2279 c-4 -6 -5 -12 -2 -15 2 -3 7 2 10 11 7 17 1 20 -8 4z"/>
<path d="M2525 2229 c-4 -6 -5 -12 -2 -15 2 -3 7 2 10 11 7 17 1 20 -8 4z"/>
<path d="M2490 2159 c0 -5 5 -7 10 -4 6 3 10 8 10 11 0 2 -4 4 -10 4 -5 0 -10
-5 -10 -11z"/>
<path d="M1389 2083 c-13 -16 -12 -17 4 -4 16 13 21 21 13 21 -2 0 -10 -8 -17
-17z"/>
<path d="M1638 1623 c7 -3 16 -2 19 1 4 3 -2 6 -13 5 -11 0 -14 -3 -6 -6z"/>
<path d="M1496 1598 c3 -5 10 -6 15 -3 13 9 11 12 -6 12 -8 0 -12 -4 -9 -9z"/>
<path d="M2241 874 c-12 -15 -21 -34 -21 -44 0 -14 62 -102 133 -190 41 -51
107 -139 107 -144 0 -3 -38 -6 -85 -6 -81 0 -86 1 -97 25 -13 29 -44 33 -53 6
-8 -26 13 -67 42 -80 13 -6 66 -11 117 -11 79 0 95 3 114 20 31 29 27 61 -15
117 -111 146 -159 209 -171 221 -6 8 -17 22 -22 33 -10 18 -6 19 75 19 83 0
86 -1 95 -26 7 -19 16 -25 33 -22 18 2 22 9 20 38 -3 58 -28 70 -148 70 -100
0 -104 -1 -124 -26z"/>
<path d="M2715 889 c-42 -21 -46 -41 -47 -246 0 -204 5 -229 40 -207 15 10 17
33 18 192 1 99 4 188 7 196 8 20 149 23 164 4 5 -7 9 -95 9 -196 -1 -194 4
-219 42 -195 15 9 17 34 18 199 1 206 -5 237 -52 254 -33 13 -173 12 -199 -1z"/>
<path d="M3097 893 c-13 -12 -7 -41 9 -47 9 -3 36 -6 60 -6 l44 0 0 -175 0
-175 -54 0 c-59 0 -71 -8 -61 -40 6 -19 14 -20 142 -18 118 3 137 5 147 21 15
24 -7 37 -66 37 l-48 0 0 174 0 175 51 3 c37 2 55 8 63 21 8 14 8 20 -4 27
-17 11 -273 14 -283 3z"/>
<path d="M3637 888 c-83 -193 -120 -300 -124 -363 -4 -57 -2 -73 11 -84 31
-26 46 -6 46 58 0 47 9 83 41 163 40 102 58 134 60 110 2 -16 4 -23 14 -47 48
-117 65 -175 65 -227 0 -60 8 -73 40 -63 17 5 20 15 20 71 0 60 -32 159 -120
372 -10 24 -44 30 -53 10z"/>
<path d="M4002 890 c-40 -17 -47 -54 -47 -255 0 -170 2 -189 18 -199 36 -22
42 9 41 200 0 99 4 185 9 192 6 8 36 12 84 12 58 0 75 -3 80 -16 3 -9 6 -97 7
-196 1 -160 3 -182 18 -192 35 -22 41 4 42 191 2 210 1 215 -31 248 -24 23
-33 25 -112 24 -47 0 -96 -4 -109 -9z"/>
<path d="M4420 880 c-20 -20 -24 -32 -20 -60 2 -14 112 -164 192 -261 21 -26
38 -52 38 -58 0 -7 -29 -11 -83 -11 -80 0 -84 1 -95 25 -13 29 -37 33 -51 8
-11 -21 10 -67 38 -83 26 -13 197 -13 222 1 24 12 41 52 32 76 -4 9 -56 79
-116 156 -60 78 -111 147 -114 154 -4 10 14 13 79 13 81 0 85 -1 96 -25 13
-27 34 -32 49 -12 15 18 8 46 -18 73 -21 22 -30 24 -126 24 -90 0 -106 -3
-123 -20z"/>
<path d="M4823 889 c-8 -8 -9 -18 -2 -31 9 -16 23 -18 122 -18 l112 0 0 -75 1
-75 -53 0 c-41 0 -54 -4 -62 -18 -15 -28 6 -42 64 -42 l50 0 1 -70 0 -69 -116
-3 -115 -3 0 -25 0 -25 146 -3 145 -3 0 233 -1 233 -140 3 c-98 2 -144 -1
-152 -9z"/>
<path d="M5382 878 c-6 -13 -23 -54 -37 -93 -14 -38 -30 -79 -35 -90 -32 -67
-50 -136 -50 -192 0 -53 3 -63 20 -68 32 -10 40 3 40 65 0 45 10 84 43 171 24
61 46 108 50 103 3 -5 24 -55 46 -112 29 -73 41 -117 41 -155 0 -64 12 -87 37
-71 13 8 19 27 21 70 2 52 -4 77 -52 199 -72 186 -76 195 -96 195 -9 0 -22
-10 -28 -22z"/>
</g>
</svg>
